<?xml version="1.0" encoding="utf-8"?>
<!-- Generator: Adobe Illustrator 22.0.0, SVG Export Plug-In . SVG Version: 6.00 Build 0)  -->
<svg version="1.1" id="图层_1" xmlns="http://www.w3.org/2000/svg" xmlns:xlink="http://www.w3.org/1999/xlink" x="0px" y="0px"
	 viewBox="0 0 1000 1000" enable-background="new 0 0 1000 1000" xml:space="preserve">
<g opacity="0.02">
	<rect x="99" y="116" fill="#FFFFFF" width="800" height="800"/>
</g>
<g>
	<path fill="#FFAB2A" d="M750.43823,653.25592h-501.6864c-27.1544,0-49.28329-22.39374-49.28329-49.81726V277.83279
		c0-27.42596,22.19423-49.82059,49.28329-49.82059h501.6864c27.08569,0,49.28076,22.39462,49.28076,49.82059v325.60587
		C799.71899,630.86218,777.52393,653.25592,750.43823,653.25592L750.43823,653.25592z M750.43823,653.25592"/>
	<path fill="#FFEFCB" d="M750.0351,787.42883H248.28415c-27.08989,0-49.28415-22.39709-49.28415-49.82056V362.18182h600.25043
		v375.42645C799.38458,764.96637,777.19037,787.42883,750.0351,787.42883L750.0351,787.42883z M750.0351,787.42883"/>
	<path fill="#FFFFFF" d="M243.58882,297.6828c0,6.93155,5.64957,12.58237,12.57225,12.58237
		c6.92606,0,12.5723-5.65082,12.5723-12.58237c0-4.50696-2.41934-8.61023-6.25293-10.89697
		c-3.90002-2.22028-8.67311-2.22028-12.56891,0C246.01152,289.00693,243.58882,293.17584,243.58882,297.6828L243.58882,297.6828z
		 M334.10916,297.6828c0,6.93155,5.64957,12.58237,12.57227,12.58237c6.92606,0,12.5723-5.65082,12.5723-12.58237
		c0-4.50696-2.41934-8.61023-6.25296-10.89697c-3.89999-2.22028-8.6731-2.22028-12.56888,0
		C336.53186,289.00693,334.10916,293.17584,334.10916,297.6828L334.10916,297.6828z M288.849,297.6828
		c0,6.93155,5.64957,12.58237,12.57227,12.58237c6.92606,0,12.57227-5.65082,12.57227-12.58237
		c0-4.50696-2.41931-8.61023-6.25293-10.89697c-3.89999-2.22028-8.6731-2.22028-12.56891,0
		C291.2717,289.00693,288.849,293.17584,288.849,297.6828L288.849,297.6828z"/>
	<path fill="#FFAB2A" d="M598.03436,499.32516c0-24.86334-20.38477-45.01208-45.5484-45.01208H376.98337
		c-25.15802,0-45.55545,20.14874-45.55545,45.01208v151.35648c0,24.86334,20.39743,45.01886,45.54837,45.01886h175.50967
		c25.15802,0,45.5484-20.15552,45.5484-45.01886c0.00354-1.58972,0.75964-3.08362,2.03845-4.02979
		c1.28357-0.95178,2.93988-1.24524,4.47186-0.79059l38.44086,11.39844c9.73767,2.90186,19.98865-2.61279,22.93182-12.33783
		c0.51117-1.69904,0.7699-3.46228,0.77112-5.23584V509.61069c-0.01392-4.87579-1.96484-9.54651-5.42242-12.98465
		c-3.4588-3.43811-8.14008-5.36163-13.01703-5.34665c-1.7771,0-3.55304,0.25433-5.26349,0.76434l-39.13159,11.60001
		c-1.36841,0.40518-2.84875,0.14499-3.99622-0.70453C598.71118,502.09207,598.03436,500.75134,598.03436,499.32516
		L598.03436,499.32516z M424.36945,615.80157v-82.2663c0-10.60791,8.92502-19.21057,19.93451-19.21057
		c3.7811,0,7.47617,1.03247,10.66797,2.97638l67.40735,41.13672c9.30719,5.6734,12.0697,17.54156,6.17523,26.5058
		c-1.57556,2.40088-3.68768,4.42554-6.16815,5.94745l-67.41443,41.14319c-9.30045,5.67932-21.61765,3.01825-27.51208-5.9472
		c-2.01193-3.05151-3.08569-6.62427-3.09039-10.27869V615.80157z M424.36945,615.80157"/>
	<g>
		<path fill="#FFFFFF" d="M728.8194,306.17267v36.75729l36.33698-25.67505l-26.01099-18.37985L728.8194,306.17267z
			 M728.8194,306.17267"/>
		<path fill="#FFFFFF" d="M765.15637,278.54303l-36.33698-25.67505v36.75818l10.32599,7.2966L765.15637,278.54303z
			 M765.15637,278.54303"/>
		<path fill="#FFFFFF" d="M740.5285,297.89917l25.2113,17.8157v-35.63129L740.5285,297.89917z M740.5285,297.89917"/>
		<path fill="#FFFFFF" d="M690.88715,278.54303l26.01062,18.37973l10.3269-7.2966v-36.75818L690.88715,278.54303z
			 M690.88715,278.54303"/>
		<path fill="#FFFFFF" d="M727.22467,306.17267l-10.3269-7.29761l-26.01062,18.37985l36.33752,25.67505V306.17267z
			 M727.22467,306.17267"/>
		<path fill="#FFFFFF" d="M709.3161,297.89917l-27.39142,19.35574v-38.71188L709.3161,297.89917z M709.3161,297.89917"/>
		<path fill="#FFFFFF" d="M737.7641,297.89917l-9.74255-6.88345l-9.74152,6.88345l9.74255,6.88345L737.7641,297.89917z
			 M737.7641,297.89917"/>
	</g>
</g>
</svg>
