<svg id="图层_1" data-name="图层 1" xmlns="http://www.w3.org/2000/svg" xmlns:xlink="http://www.w3.org/1999/xlink" viewBox="0 0 630.84271 664.64099"><defs><style>.cls-1{fill:none;}.cls-2{fill:#ff556e;}.cls-3{fill:#1fbdff;}.cls-4{fill:#23bafa;}.cls-5{fill:#1fc0ff;}.cls-6{fill:#1fc3ff;}.cls-7{fill:#1fc6ff;}.cls-8{fill:#27c6ff;}.cls-9{clip-path:url(#clip-path);}.cls-10{fill:#24c8fa;}.cls-11{fill:#1fb7ff;}.cls-12{fill:#fff;}.cls-13{fill:#91c7d2;}</style><clipPath id="clip-path" transform="translate(-643.87855 -208.16003)"><rect class="cls-1" x="644" y="208" width="630.88" height="665.76004"/></clipPath></defs><path class="cls-2" d="M693.759,438.87906h106.48A59.73062,59.73062,0,0,0,835.04,427.68l23.278-16.719a213.63939,213.63939,0,0,0,88.722-163.039,34.28645,34.28645,0,0,1,34.238-32.641h3.84c16.563,0,28.16,5.598,40.801,22.48095,38.719,48.32007,40.238,112.32007,28.719,171.51908l-1.84,9.598a14.441,14.441,0,0,0,13.359,19.922h145.84c36.082,0,62.723,6.48,53.762,68.961C1248.4,659.281,1204.239,800.64005,1187.2,834c-10.242,18.961-25.281,31.441-45.281,31.441H717.36a42.739,42.739,0,0,1-42.64-39.761L651.2,484.398a42.56509,42.56509,0,0,1,42.559-45.519Zm0,0" transform="translate(-643.87855 -208.16003)"/><path class="cls-3" d="M1054.239,865.601h87.602c20,0,35.039-12.562,45.277-31.441,16.961-33.441,61.2-174.801,78.563-326.238,8.238-57.043-13.281-67.364-44.563-68.723a323.58386,323.58386,0,0,1,26.72308,129.281c-.082,132.559-79.602,246.641-193.602,297.121ZM671.04,773.519l3.598,52.321a42.68709,42.68709,0,0,0,42.64,39.761h74.403A325.98168,325.98168,0,0,1,671.04,773.519Zm276.32-529.121a322.99842,322.99842,0,0,1,96.559,22.403,145.94615,145.94615,0,0,0-18.16-28.96106c-6.238-8.32093-12.238-13.91791-18.719-17.4419-10.242-2-20.722-3.519-31.199-4.63611a34.29348,34.29348,0,0,0-28.481,28.63611Zm0,0" transform="translate(-643.87855 -208.16003)"/><path class="cls-4" d="M908.88,832.961c-104.402,0-195.359-57.121-243.52-141.84l5.68,82.398a326.36491,326.36491,0,0,0,120.559,92.082h262.64c114-50.402,193.602-164.562,193.602-297.203A324.13987,324.13987,0,0,0,1221.118,439.121c-2.961-.16-6.07794-.16-9.199-.16h-47.359a278.9492,278.9492,0,0,1,24.238,114.16c-.078,154.48-125.359,279.84-279.918,279.84Zm38.078-585.039a220.64343,220.64343,0,0,1-3.117,27.359A277.94221,277.94221,0,0,1,1058.56,316.48a171.85825,171.85825,0,0,0-14.641-49.84,323.58617,323.58617,0,0,0-96.559-22.402c-.16,1.281-.32,2.481-.402,3.684Zm0,0" transform="translate(-643.87855 -208.16003)"/><path class="cls-5" d="M935.841,306.558a234.55958,234.55958,0,0,1,124.078,64.321,245.97419,245.97419,0,0,0-1.281-54.32105,277.63987,277.63987,0,0,0-114.719-41.199,229.29863,229.29863,0,0,1-8.078,31.199Zm-41.121,466c-129.68,0-234.801-105.117-234.801-234.796a233.19072,233.19072,0,0,1,20.879-96.883,42.70941,42.70941,0,0,0-29.68,43.601L665.36,691.039a279.65913,279.65913,0,0,0,243.52,141.84c154.559,0,279.84-125.278,279.84-279.84a278.90063,278.90063,0,0,0-24.242-114.16h-56.719a233.48086,233.48086,0,0,1,21.762,98.883c0,129.679-105.121,234.796-234.801,234.796Zm0,0" transform="translate(-643.87855 -208.16003)"/><path class="cls-6" d="M922.478,337.35907A189.87009,189.87009,0,0,1,1070.4,522.558c0,104.801-84.961,189.84-189.84,189.84s-189.762-85.039-189.762-189.84a188.90241,188.90241,0,0,1,19.359-83.59695H693.681a43.4295,43.4295,0,0,0-12.961,2,233.12325,233.12325,0,0,0-20.879,96.879c0,129.679,105.117,234.8,234.797,234.8s234.801-105.121,234.801-234.8a234.69835,234.69835,0,0,0-21.758-98.879h-41.684a14.41061,14.41061,0,0,1-13.359-19.922l1.84-9.598a343.1265,343.1265,0,0,0,5.363-38.48,234.29676,234.29676,0,0,0-124.082-64.321,208.27212,208.27212,0,0,1-13.281,30.719Zm0,0" transform="translate(-643.87855 -208.16003)"/><path class="cls-7" d="M880.56,712.32c104.8,0,189.84-84.961,189.84-189.84,0-90.398-63.282-166.082-147.922-185.121a213.10408,213.10408,0,0,1-19.118,29.922,144.71127,144.71127,0,1,1-164.402,71.68H710.157A188.90241,188.90241,0,0,0,690.798,522.558c0,104.801,84.961,189.762,189.762,189.762Zm0,0" transform="translate(-643.87855 -208.16003)"/><path class="cls-8" d="M866.56,652a144.74063,144.74063,0,0,0,36.8-284.719,209.57772,209.57772,0,0,1-25.839,28.16,99.71355,99.71355,0,1,1-109.602,43.438H738.88A144.93819,144.93819,0,0,0,866.56,652Zm0,0" transform="translate(-643.87855 -208.16003)"/><g class="cls-9"><path class="cls-10" d="M852.4,591.68005a99.76932,99.76932,0,0,0,25.121-196.321,226.629,226.629,0,0,1-19.203,15.602L835.04,427.68a59.73062,59.73062,0,0,1-34.801,11.199H767.997a99.75024,99.75024,0,0,0,84.403,152.801Zm0,0" transform="translate(-643.87855 -208.16003)"/><path class="cls-11" d="M1141.841,872.801H717.278a49.96717,49.96717,0,0,1-49.757-46.481l-23.524-341.281a49.84118,49.84118,0,0,1,49.762-53.277h106.48a52.58229,52.58229,0,0,0,30.641-9.84l23.277-16.723a206.03782,206.03782,0,0,0,85.684-157.519,41.44136,41.44136,0,0,1,41.437-39.52h3.84c19.52,0,33.039,7.359,46.481,25.281,34.48,43.117,44.64,102.797,30.082,177.36l-2,10.238-.242.641a6.93937,6.93937,0,0,0,.718,6.8,7.078,7.078,0,0,0,6,3.2h145.84c18.242,0,38.801,1.199,51.363,15.761,10.719,12.399,13.758,31.84,9.52,61.278-9.67993,84.402-26.883,159.839-39.602,208.32-15.83906,60.32-31.359,103.922-39.679,120.32l-.078.16c-12.563,23.039-30.403,35.282-51.68,35.282ZM693.759,446.082a35.46112,35.46112,0,0,0-35.359,37.918l23.519,341.281A35.55909,35.55909,0,0,0,717.36,858.32h424.559c15.922,0,28.961-9.281,38.879-27.601,8-15.758,23.043-58.161,38.562-117.36,12.637-48,29.68-122.801,39.2-206.398v-.242c3.597-24.719,1.519-41.039-6.16-49.918-7.762-8.961-21.762-10.801-40.481-10.801H1065.997a21.78731,21.78731,0,0,1-18-9.602,21.43569,21.43569,0,0,1-2.316-19.519l1.758-8.957c13.679-70.321,4.48-126-27.282-165.684l-.16-.156c-10.797-14.481-20-19.602-35.039-19.602h-3.84a27.07481,27.07481,0,0,0-27.039,25.758A220.51727,220.51727,0,0,1,862.4,416.801l-23.2,16.718a66.40423,66.40423,0,0,1-39.043,12.563Zm0,0" transform="translate(-643.87855 -208.16003)"/></g><path class="cls-12" d="M979.118,306.879a14.37463,14.37463,0,0,0-17.437,10.562c-12.403,50.399-49.762,86.078-50.242,86.481a14.39563,14.39563,0,0,0-.641,20.316,14.31092,14.31092,0,0,0,20.32.641c1.762-1.68,44-41.68,58.481-100.641a14.2188,14.2188,0,0,0-10.481-17.359Zm-100,124.801-7.597,5.441a14.365,14.365,0,0,0-3.282,20.078,14.2219,14.2219,0,0,0,10.559,5.922,14.39417,14.39417,0,0,0,9.52-2.723l7.601-5.437a14.35523,14.35523,0,1,0-16.801-23.281Zm0,0" transform="translate(-643.87855 -208.16003)"/><path class="cls-13" d="M727.2,489.12106h62.641a19.45783,19.45783,0,0,1,19.437,19.437v287.68a19.45889,19.45889,0,0,1-19.437,19.442H746.239a19.36155,19.36155,0,0,1-19.359-18.161L707.841,509.84a19.4494,19.4494,0,0,1,19.359-20.719Zm0,0" transform="translate(-643.87855 -208.16003)"/></svg>