<?xml version="1.0" encoding="utf-8"?>
<!-- Generator: Adobe Illustrator 22.0.0, SVG Export Plug-In . SVG Version: 6.00 Build 0)  -->
<svg version="1.1" id="图层_1" xmlns="http://www.w3.org/2000/svg" xmlns:xlink="http://www.w3.org/1999/xlink" x="0px" y="0px"
	 viewBox="0 0 500 500" enable-background="new 0 0 500 500" xml:space="preserve">
<g>
	<path fill="#FBB03B" d="M258.77917,156.05072v65.3013l64.55457-45.61313l-46.20999-32.65279L258.77917,156.05072z
		 M258.77917,156.05072"/>
	<path fill="#FBB03B" d="M323.33374,106.96516l-64.55457-45.61314v65.30289l18.34457,12.96282L323.33374,106.96516z
		 M323.33374,106.96516"/>
	<path fill="#FBB03B" d="M279.58102,141.35237l44.78918,31.65056v-63.3009L279.58102,141.35237z M279.58102,141.35237"/>
	<path fill="#FBB03B" d="M191.39038,106.96516l46.20932,32.65257l18.34636-12.96282V61.35202L191.39038,106.96516z
		 M191.39038,106.96516"/>
	<path fill="#FBB03B" d="M255.94606,156.05072l-18.34636-12.96461l-46.20932,32.65279l64.55568,45.61313V156.05072z
		 M255.94606,156.05072"/>
	<path fill="#FBB03B" d="M224.13043,141.35237l-48.66235,34.38652v-68.77373L224.13043,141.35237z M224.13043,141.35237"/>
	<path fill="#FBB03B" d="M274.66983,141.35237l-17.30811-12.22884l-17.30632,12.22884l17.30812,12.22882L274.66983,141.35237z
		 M274.66983,141.35237"/>
</g>
<g>
	<path fill="#FBB03B" d="M89.04221,306.69968c2.28215-0.44397,4.07468-0.06937,5.39341,1.10986
		c1.3107,1.18628,0.01057,1.99777-3.89478,2.44174c-3.91238,0.44394-9.52089,1.40826-16.83175,2.88568
		c2.6216,2.37259,3.72536,3.99557,3.30923,4.88345c-0.42317,0.88791-0.46458,2.21976-0.11759,3.99557
		c2.40624-0.29114,4.9211-0.81149,7.54358-1.55383c2.6144-0.73508,4.64747-0.44394,6.09053,0.88791
		c1.43601,1.33185,0.27755,2.21976-3.48202,2.6637c-3.76662,0.44397-7.48119,1.10989-11.15758,1.99777l-0.87351,6.21533
		c4.77177-0.29114,8.05282,0.59677,9.83652,2.6637c1.77563,2.07422,2.11189,3.92642,0.99589,5.54941
		c-1.11702,1.63025-2.70532,1.33185-4.75867-0.88791c-2.0604-2.21976-4.14516-4.21753-6.26092-5.99335l-1.62222,11.54276
		c-0.49915,3.55161-0.91872,5.99332-1.25146,7.3252c-0.33979,1.33185-1.23483,2.96207-2.6841,4.88345
		c-1.45734,1.92862-2.56722,1.92862-3.32964,0c-0.77048-1.92139-2.4113-3.91916-4.92906-5.99335
		c-2.52583-2.06693-2.69239-2.95483-0.51355-2.6637c2.17782,0.29837,3.74239,0.22195,4.69269-0.22198
		s1.82058-2.44174,2.61811-5.99335c0.79049-3.55161,1.67034-8.7262,2.62772-15.5383
		c-7.61026,1.48468-12.417,2.51816-14.42122,3.10767c-2.01229,0.59677-4.14817,0-6.4097-1.77582
		c-2.26857-1.77579-1.56479-2.58728,2.11897-2.44171c3.6757,0.1528,10.0825-0.66592,19.2111-2.44174
		c0.07597-2.6637-0.08721-4.6615-0.48955-5.99335c-0.40938-1.33185-0.98869-2.44171-1.75181-3.32962
		c-9.46892,2.07419-15.44793,3.55161-17.93803,4.43951c-2.49715,0.88788-4.52338,0.59677-6.09053-0.88791
		c-1.56817-1.47742-2.31083-2.51089-2.22696-3.10767c0.08285-0.58951,1.15825-0.88791,3.23244-0.88791
		c2.36532,0,6.19056-0.36752,11.47674-1.10986c5.27815-0.73529,11.58008-1.84518,18.89193-3.32965
		c4.08479-5.91693,6.33897-10.35645,6.75526-13.31854c0.41531-2.95505,1.88963-3.47519,4.43591-1.5538
		c2.53825,1.92841,2.88911,3.62802,1.05828,5.10544c-1.83887,1.48444-4.23149,4.29395-7.17881,8.43506
		C84.11308,307.51819,86.76007,307.14362,89.04221,306.69968z M54.56879,332.44885c0.99121-0.73508,1.40429,0.52036,1.24546,3.77359
		c-0.16689,3.26047-1.44224,7.10321-3.84198,11.54272s-4.22124,5.25827-5.4486,2.44174
		c-1.23542-2.8093-1.04856-5.17462,0.55434-7.10324c1.60189-1.92136,2.99253-3.91916,4.17194-5.99335
		C52.47028,334.74503,53.57656,333.19119,54.56879,332.44885z M87.53519,285.83395c2.02471-0.73529,4.16827-0.73529,6.43729,0
		c2.26099,0.74234,3.18063,1.55383,2.7645,2.44174c-0.42317,0.88791-3.53129,1.92841-9.31578,3.10764
		c-5.79252,1.18631-10.74482,2.21976-14.86517,3.10767c-4.12035,0.88791-7.58214,0.74234-10.37046-0.44394
		c-2.79636-1.17926-2.16096-1.99777,1.89699-2.44174c4.05795-0.44394,8.38954-1.25543,12.99577-2.44171
		C82.01683,287.68616,85.50245,286.57629,87.53519,285.83395z M64.79768,299.1525c0.11742-1.92139,1.47382-1.55383,4.06155,1.10986
		c2.5807,2.66373,3.20163,5.10544,1.85619,7.3252c-1.35248,2.21976-2.70204,1.85223-4.06155-1.10986
		C65.29337,303.52264,64.67222,301.0809,64.79768,299.1525z M76.47001,272.95938c-0.85333-1.33188,1.37617-1.40125,6.69046-0.22198
		c5.30626,1.18628,7.25926,3.62802,5.85176,7.3252c-1.4085,3.70422-3.638,3.77359-6.69047,0.22198
		C79.26929,276.73294,77.31629,274.29123,76.47001,272.95938z M127.66599,306.69968c5.9995-1.6232,10.2659-1.47742,12.81219,0.44394
		c2.53825,1.92841,1.93831,3.0383-1.7998,3.32965c-3.74615,0.29837-10.13515,1.0405-19.1799,2.21976
		c1.60909,1.18628,2.89932,2.51813,3.87798,3.99554c-0.92232,4.43951-2.15005,12.1395-3.6884,23.08548
		c-1.8718,13.31854-3.90292,22.48868-6.08814,27.52496c-2.19125,5.02905-3.09686,4.6615-2.7297-1.10986
		c0.36716-5.77136,1.00795-11.91028,1.92339-18.42398l2.49573-17.75806c1.12309-7.99112,1.14992-13.46411,0.0888-16.42621
		c-3.6764,0.88791-7.08244,0.88791-10.21088,0c-0.66586,4.73792-1.56773,9.03186-2.6973,12.8746
		c-1.13764,3.85001-2.40328,7.62357-3.81078,11.32074c-1.40853,3.70444-3.55837,7.40161-6.4433,11.09879
		c-2.89299,3.70444-5.93106,6.36816-9.1142,7.99115c-3.19121,1.63022-3.63823,1.10986-1.33546-1.55383
		c2.29573-2.66373,4.57397-5.69498,6.82846-9.10101c2.25347-3.39877,4.16834-7.54718,5.74257-12.43063
		c1.57423-4.88345,2.97814-10.13446,4.21275-15.76028c1.23361-5.61874,1.96882-10.35645,2.21856-14.20642
		c0.24171-3.84296,0.08617-6.43732-0.46194-7.76917c-0.55516-1.33185-0.57594-2.21976-0.0696-2.6637
		c0.50635-0.44397,2.195-0.36755,5.07424,0.22195c3.54375-2.06714,7.20679-4.43948,10.9872-7.10321
		c3.77337-2.6637,6.01375-4.88345,6.70727-6.65927c0.69353-1.77579,2.1464-2.14334,4.37352-1.10986
		c2.21909,1.0405,4.1061,2.37234,5.65379,3.99554c1.54669,1.63025,0.26036,2.88568-3.85999,3.77359
		s-10.932,3.55161-20.43496,7.99112c-0.75658,3.26028-1.84442,8.87903-3.25885,16.87015
		C114.26749,309.88373,121.6655,308.3299,127.66599,306.69968z"/>
	<path fill="#FBB03B" d="M202.737,294.30319c3.42616,1.92841,5.26825,4.07196,5.53259,6.43729
		c0.2561,2.37238-0.27042,3.99554-1.57423,4.88345c-1.31107,0.88791-3.74239-0.22195-7.30119-3.32962
		s-6.95488-6.88126-10.17368-11.32077c-6.65913,9.47559-12.8038,16.87015-18.43599,22.19757s-10.85521,9.32297-15.66908,11.98669
		c-4.81387,2.6637-4.68909,1.77579,0.37436-2.66373s9.9985-9.54495,14.80518-15.31631s8.7946-11.54272,11.97829-17.31409
		c3.17644-5.77139,4.80264-9.98892,4.88588-12.65262c0.07597-2.66373,1.16507-3.55161,3.26004-2.66373
		c2.09497,0.88791,3.83891,2.15039,5.24103,3.77359c1.39386,1.63025,1.60197,2.81631,0.61073,3.55161
		c-0.99223,0.74234-2.94516,3.0383-5.85057,6.88126C195.19981,290.5296,199.3026,292.38181,202.737,294.30319z M172.22313,345.57956
		c-0.20801,3.55161,0.66631,5.77136,2.61571,6.65927c1.94215,0.88791,4.69629,1.33185,8.24789,1.33185
		c3.84274,0,7.06773-0.29114,9.66975-0.88791c2.59373-0.58951,4.43161-2.06693,5.50739-4.43951
		c1.0675-2.36533,2.15302-4.80704,3.24925-7.3252c1.08797-2.51086,1.37593-1.401,0.86391,3.32965
		c-0.52031,4.73788-0.4679,8.06754,0.14998,9.98889c0.61685,1.92862-0.77707,3.40607-4.17555,4.43951
		c-3.40674,1.04074-8.19876,1.47742-14.39362,1.33185c-6.19385-0.1528-10.39522-0.81149-12.59381-1.99777
		c-2.20688-1.17902-3.5179-3.39877-3.94757-6.65927c-0.43069-3.25323,0.09277-9.10101,1.57663-17.53607
		c1.47661-8.43509,1.72194-13.83163,0.72353-16.20422c-0.99944-2.36533-0.48665-3.3988,1.54663-3.10767
		c2.02499,0.2984,4.0368,0.74234,6.02814,1.33185c5.7014-0.58951,9.46495-1.55383,11.28236-2.88568
		c1.81017-1.33185,3.76999-1.55383,5.86496-0.66592s3.79367,1.92862,5.11264,3.10767
		c1.3107,1.18628,1.19992,2.51813-0.33957,3.99557c-1.54051,1.48465-2.81248,4.21753-3.81798,8.21307
		c-1.00549,3.99557-2.0293,7.03409-3.05487,9.10101c-1.03384,2.07419-2.45897,3.77359-4.26913,5.10544
		c-1.81741,1.33185-2.8649,0.88791-3.14246-1.33185c-0.28481-2.21976-1.38458-4.3631-3.31284-6.43729
		c-1.92926-2.06696-1.89061-2.88568,0.12119-2.44174c2.00455,0.44394,3.5369,0.59677,4.59911,0.44394
		c1.05392-0.14557,1.92105-1.03345,2.59412-2.6637c0.67204-1.62299,1.21672-3.91916,1.63301-6.88126
		c0.41528-2.95483,0.12404-4.58508-0.86749-4.88345c-0.99982-0.29114-2.55363-0.29114-4.6615,0
		c-2.11612,0.29837-5.14061,0.74234-9.06619,1.33185C173.67175,333.14893,172.42389,342.02795,172.22313,345.57956z
		 M226.18362,299.63058c-1.07507,1.33188-2.10173,6.5137-3.07167,15.5383c-0.97821,9.03186-2.25044,15.46915-3.82397,19.31189
		c-1.58182,3.85001-2.87489,4.6615-3.89478,2.44174c-1.0199-2.21976-1.55788-4.21756-1.59943-5.99335
		c-0.04881-1.77582,0.44963-4.28668,1.50464-7.54718c1.04672-3.25323,1.84743-7.9147,2.40933-13.98447
		c0.55368-6.06271,0.34563-10.35645-0.63232-12.87457c-0.97894-2.51111,0.91867-2.88568,5.70538-1.10989
		C226.12378,296.89752,227.25871,298.29874,226.18362,299.63058z M247.03735,280.76266
		c-1.43587,1.77582-2.79854,7.76913-4.08076,17.98004c-1.28947,10.21088-2.37132,18.94434-3.23726,26.19312
		c-0.87419,7.25604-1.54619,13.61691-2.01698,19.0899c-0.47906,5.48022-1.3035,9.76694-2.47533,12.8746
		c-1.17909,3.10764-3.19341,5.84052-6.03773,8.21307c-2.85057,2.36533-4.49831,1.9978-4.94946-1.10986
		s-2.27937-6.43729-5.4774-9.98892c-3.20528-3.55161-2.98363-4.58505,0.65874-3.10764
		c3.63408,1.48468,6.22568,1.99777,7.77275,1.55383c1.53981-0.44397,2.82253-3.25323,3.84917-8.43509
		c1.01837-5.17459,2.63089-16.64816,4.83548-34.40622c2.19736-17.75806,2.45981-28.55844,0.78113-32.40845
		c-1.67966-3.84296-0.94818-5.39679,2.20897-4.6615c3.1489,0.74234,5.65662,1.85223,7.52316,3.32965
		C248.25012,277.36365,248.46596,278.98685,247.03735,280.76266z"/>
	<path fill="#FBB03B" d="M330.90891,360.18896h-45.28305l10.66925-75.91568h43.06329l-1.18549,8.43509h-32.85239l-3.30685,23.52942
		h30.18869l-1.18549,8.43506h-30.18869l-3.80597,27.08105h35.07214L330.90891,360.18896z"/>
	<path fill="#FBB03B" d="M394.7713,360.18896h-10.65485l-11.36514-32.85239h-11.54272l-4.6171,32.85239h-10.21091l10.66925-75.91568
		h22.19757c7.10324,0,12.63477,1.70645,16.59659,5.10544c3.96082,3.40607,5.40067,8.95544,4.31952,16.64819
		c-0.83255,5.92398-2.96164,10.50925-6.37372,13.76248c-3.42032,3.2605-7.11685,5.32742-11.08438,6.21533L394.7713,360.18896z
		 M389.95264,306.02692c0.582-4.14114-0.22345-7.39456-2.40094-9.76694c-2.1857-2.36533-6.09097-3.55161-11.7095-3.55161h-9.76694
		l-3.68121,26.19312h12.43063c3.55164,0,6.79379-0.95706,9.72855-2.88568
		C387.48697,314.09445,389.28677,310.7648,389.95264,306.02692z"/>
	<path fill="#FBB03B" d="M458.18973,360.18896h-10.65482l-2.90848-23.52942h-19.53387l-9.52216,23.52942h-10.65482
		l32.99161-76.80356h8.87903L458.18973,360.18896z M443.59213,328.22449l-3.29721-27.08105h-0.88791l-10.90921,27.08105H443.59213z"
		/>
</g>
<g>
	<path fill="#FBB03B" d="M255.21471,321.79385c-0.76134,5.41724,3.02348,9.80878,8.4539,9.80878
		c5.43027,0,10.44949-4.39154,11.21085-9.80878c0.76138-5.41745-3.02347-9.80893-8.45374-9.80893
		C260.9953,311.98492,255.97607,316.3764,255.21471,321.79385L255.21471,321.79385z M255.21471,321.79385"/>
</g>
</svg>
