<?xml version="1.0" encoding="utf-8"?>
<!-- Generator: Adobe Illustrator 22.0.0, SVG Export Plug-In . SVG Version: 6.00 Build 0)  -->
<svg version="1.2" baseProfile="tiny" id="图层_1"
	 xmlns="http://www.w3.org/2000/svg" xmlns:xlink="http://www.w3.org/1999/xlink" x="0px" y="0px" viewBox="0 0 500 500"
	 xml:space="preserve">
<g>
	<path fill="#FBB03B" d="M268.1,280v131.7l130.2-92l-93.2-65.9L268.1,280z M268.1,280"/>
	<path fill="#FBB03B" d="M398.3,181L268.1,89v131.7l37,26.1L398.3,181z M398.3,181"/>
	<path fill="#FBB03B" d="M310,250.4l90.3,63.8V186.5L310,250.4z M310,250.4"/>
	<path fill="#FBB03B" d="M132.1,181l93.2,65.9l37-26.1V89L132.1,181z M132.1,181"/>
	<path fill="#FBB03B" d="M262.3,280l-37-26.2l-93.2,65.9l130.2,92V280z M262.3,280"/>
	<path fill="#FBB03B" d="M198.2,250.4L100,319.7V181L198.2,250.4z M198.2,250.4"/>
	<path fill="#FBB03B" d="M300.1,250.4l-34.9-24.7l-34.9,24.7l34.9,24.7L300.1,250.4z M300.1,250.4"/>
</g>
</svg>
