<svg xmlns="http://www.w3.org/2000/svg" xmlns:xlink="http://www.w3.org/1999/xlink" viewBox="0 0 398.03345 398.03345"><defs><style>.cls-1{isolation:isolate;}.cls-2{fill:#fff;}.cls-3{fill:#515151;}.cls-4{fill:url(#Degradado_sin_nombre_5);}.cls-5{fill:url(#未命名的渐变_283);}.cls-6{fill:url(#未命名的渐变_283-2);}.cls-11,.cls-13,.cls-7{opacity:0.9;}.cls-11,.cls-13,.cls-14,.cls-7,.cls-9{mix-blend-mode:screen;}.cls-7{fill:url(#Degradado_sin_nombre_362);}.cls-8{fill:url(#未命名的渐变_283-3);}.cls-9{fill:url(#Degradado_sin_nombre_182);}.cls-10{fill:url(#未命名的渐变_283-4);}.cls-11{fill:url(#未命名的渐变_163);}.cls-12{fill:url(#未命名的渐变_283-5);}.cls-13{fill:url(#未命名的渐变_154);}.cls-14{fill:url(#未命名的渐变_59);}</style><radialGradient id="Degradado_sin_nombre_5" cx="251.05461" cy="344.77752" r="94.29996" gradientTransform="translate(-50.58907 291.64024) scale(1 0.11293)" gradientUnits="userSpaceOnUse"><stop offset="0" stop-color="#515151"/><stop offset="0.9997" stop-color="#fff" stop-opacity="0"/></radialGradient><linearGradient id="未命名的渐变_283" x1="380.43903" y1="155.65733" x2="197.05133" y2="333.31405" gradientTransform="translate(232.5672 500.06192) rotate(-135)" gradientUnits="userSpaceOnUse"><stop offset="0" stop-color="#b7ffbe"/><stop offset="0.40983" stop-color="#00d4b9"/><stop offset="0.9903" stop-color="#008bd4"/></linearGradient><linearGradient id="未命名的渐变_283-2" x1="137.53906" y1="207.39008" x2="190.14861" y2="284.99861" xlink:href="#未命名的渐变_283"/><linearGradient id="Degradado_sin_nombre_362" x1="165.98833" y1="214.24394" x2="269.20906" y2="535.53078" gradientTransform="translate(232.5672 500.06192) rotate(-135)" gradientUnits="userSpaceOnUse"><stop offset="0.00134" stop-color="#2b2a2a"/><stop offset="1" stop-color="#fff"/></linearGradient><linearGradient id="未命名的渐变_283-3" x1="177.17318" y1="222.85494" x2="161.55314" y2="104.00699" xlink:href="#未命名的渐变_283"/><linearGradient id="Degradado_sin_nombre_182" x1="177.17367" y1="222.85543" x2="161.55362" y2="104.00748" gradientTransform="translate(232.5672 500.06192) rotate(-135)" gradientUnits="userSpaceOnUse"><stop offset="0" stop-opacity="0"/><stop offset="0.11955" stop-color="#171717" stop-opacity="0.09185"/><stop offset="0.37144" stop-color="#545454" stop-opacity="0.32848"/><stop offset="0.73144" stop-color="#b3b3b3" stop-opacity="0.7036"/><stop offset="1" stop-color="#fff"/></linearGradient><linearGradient id="未命名的渐变_283-4" x1="145.78406" y1="111.23433" x2="255.12817" y2="129.57154" xlink:href="#未命名的渐变_283"/><linearGradient id="未命名的渐变_163" x1="131.86914" y1="273.28919" x2="199.41035" y2="273.28919" gradientUnits="userSpaceOnUse"><stop offset="0.00134" stop-color="#2b2a2a"/><stop offset="0.22155" stop-color="#2e2d2d"/><stop offset="0.37296" stop-color="#373636"/><stop offset="0.50371" stop-color="#464545"/><stop offset="0.62275" stop-color="#5c5b5b"/><stop offset="0.73386" stop-color="#787777"/><stop offset="0.8391" stop-color="#9a9999"/><stop offset="0.9378" stop-color="#c2c2c2"/><stop offset="1" stop-color="#dfdfdf"/></linearGradient><linearGradient id="未命名的渐变_283-5" x1="277.39166" y1="92.57649" x2="334.70027" y2="147.01968" xlink:href="#未命名的渐变_283"/><linearGradient id="未命名的渐变_154" x1="246.15432" y1="140.54361" x2="337.55309" y2="140.54361" gradientTransform="translate(232.5672 500.06192) rotate(-135)" gradientUnits="userSpaceOnUse"><stop offset="0" stop-color="#f6f6f6"/><stop offset="0.14402" stop-color="#d1d1d1"/><stop offset="0.32931" stop-color="#a9a9a9"/><stop offset="0.51133" stop-color="#8a8989"/><stop offset="0.68668" stop-color="#737272"/><stop offset="0.85244" stop-color="#666565"/><stop offset="0.99866" stop-color="#616060"/></linearGradient><linearGradient id="未命名的渐变_59" x1="318.6047" y1="183.49823" x2="324.39121" y2="279.2394" gradientTransform="translate(232.5672 500.06192) rotate(-135)" gradientUnits="userSpaceOnUse"><stop offset="0" stop-opacity="0"/><stop offset="0.08549" stop-color="#080808" stop-opacity="0.03189"/><stop offset="0.21926" stop-color="#1e1e1e" stop-opacity="0.11933"/><stop offset="0.38459" stop-color="#434343" stop-opacity="0.26219"/><stop offset="0.57514" stop-color="#757575" stop-opacity="0.46074"/><stop offset="0.78713" stop-color="#b6b6b6" stop-opacity="0.71511"/><stop offset="1" stop-color="#fff"/></linearGradient></defs><g class="cls-1"><circle class="cls-2" cx="199.01673" cy="199.01673" r="199.01673"/><g id="OBJECTS"><path class="cls-3" d="M210.52211,216.70539a24.63763,24.63763,0,0,1-4.11621,7.37695,31.08387,31.08387,0,0,0-3.13819-2.28222,16.23113,16.23113,0,0,0,3.50489-6.03174Zm5.33887-2.0376v8.72168c0,1.95655-.32569,2.9751-1.54834,3.668-1.22266.65235-2.853.69287-5.01319.69287a14.98251,14.98251,0,0,0-1.3042-3.95312c1.22266.04052,2.48633.04052,2.93457.04052s.57032-.12207.57032-.57031v-8.59961h-7.499v-4.07568h7.499v-3.13818h-7.74366v-3.99414h3.99414A18.44838,18.44838,0,0,0,206.528,199.221l3.34228-.815h-5.50244v-3.95361h6.96924c-.3667-1.1001-.81494-2.24121-1.22266-3.21973l4.32032-1.01855a42.21639,42.21639,0,0,1,1.75244,4.23828h6.43945v3.95361h-5.13525l3.34228.65186c-.65234,1.54883-1.22265,3.13818-1.834,4.40186h4.23828v3.99414H215.861v3.13818h6.72509v4.07568Zm-5.42041-16.26172a16.31183,16.31183,0,0,1,1.38574,4.52393l-1.95606.52979h4.80909a46.41485,46.41485,0,0,0,1.75244-5.05372Zm30.97461,9.90381h-3.79v20.01123h-4.728V208.30988H228.903v.28516c0,5.99121-.52979,14.30566-4.03467,19.3999a18.17139,18.17139,0,0,0-3.709-2.89355,13.73653,13.73653,0,0,0,1.79345-3.9126l-3.21972,2.0376a46.53583,46.53583,0,0,0-3.1792-6.11328l3.1792-1.75245a48.33111,48.33111,0,0,1,3.26025,5.74659c1.26367-3.99414,1.38574-8.59961,1.38574-12.51221V194.28986a56.50755,56.50755,0,0,0,12.34912-3.46435l3.75,3.54541a67.60881,67.60881,0,0,1-11.57519,3.05713v6.39843h12.51221Z" transform="translate(-50.58907 -23.78702)"/><path class="cls-3" d="M284.97328,203.58186c-.2041.36718-.40723.69287-.61133,1.019,4.89063,4.8501,10.6377,6.60254,16.91407,7.90674a9.837,9.837,0,0,0-2.52735,3.87207c-1.6709-.44873-3.21972-.897-4.80957-1.46729v13.40869h-4.84961v-1.10058H274.62074v1.26367h-4.60547V215.60529a49.477,49.477,0,0,1-4.72754,1.54834,13.72427,13.72427,0,0,0-2.44531-3.668c7.459-1.71142,13.81641-4.93115,17.40332-10.06689h-6.76562l3.01562,1.22314a33.85968,33.85968,0,0,1-8.31445,5.3794,40.994,40.994,0,0,0-2.81152-3.3418,25.4132,25.4132,0,0,0,6.84668-3.26074h-1.42676v-2.9751h21.76465v2.9751h-1.06055a40.2605,40.2605,0,0,1,6.23633,3.13867L295.03969,209.41a41.927,41.927,0,0,0-6.84668-3.79l2.20117-2.20117h-5.82813Zm-16.2207-.40723h-4.60547v-6.92871H278.819v-5.86914h4.84961v1.83447h12.18653v2.52686H283.66859v1.50781H299.279v6.92871h-4.89063V199.221H268.75258Zm20.33691,11.24853H274.62074v1.46729h14.46875Zm-14.46875,5.5835h14.46875v-1.50781H274.62074Zm14.46875,4.1167v-1.5083H274.62074v1.5083Zm-2.44531-12.71631a25.54285,25.54285,0,0,1-4.56445-3.74951,24.06745,24.06745,0,0,1-4.11621,3.74951Z" transform="translate(-50.58907 -23.78702)"/><ellipse class="cls-4" cx="199.41093" cy="330.34053" rx="135" ry="12.11064"/><polygon class="cls-5" points="67.241 188.021 199.41 111.287 331.58 188.021 199.41 55.851 67.241 188.021"/><polygon class="cls-6" points="265.865 149.657 283.314 159.844 331.581 188.02 265.493 254.108 265.859 226.389 265.865 149.657"/><polygon class="cls-7" points="265.865 149.657 283.314 159.844 331.581 188.02 265.493 254.108 265.859 226.389 265.865 149.657"/><polygon class="cls-8" points="199.411 264.751 265.859 226.389 265.621 244.429 265.493 254.108 199.411 320.19 199.411 282.656 199.411 264.751"/><polygon class="cls-9" points="199.411 264.75 265.859 226.388 265.621 244.428 265.493 254.107 199.411 320.189 199.411 282.656 199.411 264.75"/><polygon class="cls-10" points="199.41 320.19 199.41 264.754 132.958 226.387 131.869 252.649 199.41 320.19"/><polygon class="cls-11" points="199.41 320.191 199.41 264.754 132.958 226.388 131.869 252.649 199.41 320.191"/><polygon class="cls-12" points="131.869 252.649 67.241 188.021 132.958 149.654 132.958 226.387 131.869 252.649"/><polygon class="cls-13" points="131.869 252.649 67.241 188.021 132.958 149.654 132.958 226.387 131.869 252.649"/><polygon class="cls-14" points="199.017 111.287 199.017 55.851 66.847 188.021 199.017 111.287"/><path d="M224.77,241.36408c.88525-.05957,1.30518-.36035,1.42529-.78027a13.18592,13.18592,0,0,0,.16455-2.79v-3.25488c0-1.335-.0747-1.25977-.34472-1.58985a1.81617,1.81617,0,0,0-1.36475-.55468v-.21h1.84473l6.92968,7.91993h.04493v-4.27539c0-2.92481-.01514-3.31446-1.77-3.43457v-.21h3.72021v.21c-.87012.07519-1.24512.36035-1.38037.79492a11.55722,11.55722,0,0,0-.1499,2.63965v5.85058h-.165l-6.91455-7.875h-.02979v3.98926a16.21771,16.21771,0,0,0,.13477,2.76074c.13525.46485.585.73438,1.58984.80957v.21H224.77Z" transform="translate(-50.58907 -23.78702)"/><path d="M241.375,240.43439a3.5288,3.5288,0,0,1-2.25,1.30469,2.85775,2.85775,0,0,1-2.86475-3,3.48745,3.48745,0,0,1,3.01514-3.56933,2.19487,2.19487,0,0,1,2.21973,2.11425c0,.29981-.01514.34473-.25489.39063-.24023.04492-2.16015.21-4.23.26953-.01513,2.28027,1.3501,3.08984,2.38477,3.08984a2.42151,2.42151,0,0,0,1.81494-.82519Zm-4.2749-2.96972c.34521,0,2.46-.03028,3.105-.0459.375,0,.375-.14941.375-.23926a1.59423,1.59423,0,0,0-1.71-1.58984C238.12012,235.58967,237.3252,236.24885,237.1001,237.46467Z" transform="translate(-50.58907 -23.78702)"/><path d="M248.75488,241.73908c-.59961-1.76953-1.25976-3.33008-1.87451-5.00976-.63037,1.64941-1.2749,3.26953-1.90527,5.00976h-.28467c-.5249-1.71-1.08008-3.45019-1.68018-5.00976-.33007-.88477-.39013-1.08008-1.16992-1.18457v-.21h2.68506v.21c-.62988.13476-.855.21-.855.52441a31.03974,31.03974,0,0,0,1.40967,4.34961h.03027c.54-1.46973,1.19971-3.17969,1.90479-5.00977h.21c.56982,1.56055,1.16992,3.25489,1.89013,5.00977h.02979c.43506-1.31934.87012-2.48926,1.23-3.88477a1.926,1.926,0,0,0,.08984-.49511c0-.34473-.28466-.35938-1.00488-.49414v-.21h2.625v.21c-.73486.11914-.83984.34472-1.16992,1.09472-.375.87012-1.16992,3.21-1.89014,5.09961Z" transform="translate(-50.58907 -23.78702)"/><path d="M255.3252,241.36408c1.335-.05957,1.45507-.31543,1.45507-1.5v-6.01465c0-1.18457-.12011-1.34961-1.37988-1.44043v-.22461h3.54c1.48437,0,3.10449.4502,3.10449,2.37012a2.64492,2.64492,0,0,1-1.83008,2.54981,20.22288,20.22288,0,0,0,1.335,2.05468c.71973.88477,1.76954,2.17481,2.53516,2.35547l-.04492.19434c-1.36524,0-2.085-.0752-4.34961-3.7793-.375-.54-.8252-.55566-2.10059-.55566v2.49023c0,1.18457.12012,1.44043,1.41016,1.5v.21h-3.6748Zm3.17968-4.29a2.76755,2.76755,0,0,0,1.83008-.45019,2.2027,2.2027,0,0,0,.78027-1.84473c0-1.60449-1.03515-2.29492-2.5957-2.29492a7.94985,7.94985,0,0,0-.79492.03027c-.07422,0-.13477.04492-.13477.33008V237.074Z" transform="translate(-50.58907 -23.78702)"/><path d="M266.37988,239.159c0,1.5.71973,1.88965,1.55957,1.88965a2.875,2.875,0,0,0,1.9502-.92969v-3.2998c0-.88477-.21-.94531-.75-1.0498l-.56934-.08985v-.165a11.25192,11.25192,0,0,0,2.03906-.27051v4.88965c0,.75.165.8252.75.87012l.4502.03027v.21a8.8763,8.8763,0,0,0-1.84473.50977l-.07519-.07422v-1.15527a9.09242,9.09242,0,0,1-1.29.88476,2.05326,2.05326,0,0,1-1.13965.33008c-.90039,0-1.7998-.46484-1.7998-2.12988v-2.77539c0-.88477-.22559-.96-.54-1.04981l-.48047-.10449v-.15039c.3457-.03027,1.45508-.21,1.78515-.28516a17.88115,17.88115,0,0,0-.04492,1.9502Z" transform="translate(-50.58907 -23.78702)"/><path d="M272.39453,241.36408c.96-.07519,1.11035-.26953,1.11035-1.13965v-3.12011c0-.96-.10547-1.03516-.96-1.18457v-.19532a6.03553,6.03553,0,0,0,1.67969-.60058v5.10058c0,.87012.15039,1.06446,1.125,1.13965v.21h-2.95508Zm2.05567-8.91015a.59632.59632,0,0,1-.57032.60058.617.617,0,1,1,.57032-.60058Z" transform="translate(-50.58907 -23.78702)"/></g></g></svg>