<svg xmlns="http://www.w3.org/2000/svg" xmlns:xlink="http://www.w3.org/1999/xlink" viewBox="0 0 270 286.6"><defs><style>.cls-1{isolation:isolate;}.cls-2{fill:#515151;}.cls-3{fill:url(#Degradado_sin_nombre_5);}.cls-4{fill:url(#未命名的渐变_283);}.cls-5{fill:url(#未命名的渐变_283-2);}.cls-10,.cls-12,.cls-6{opacity:0.9;}.cls-10,.cls-12,.cls-13,.cls-6,.cls-8{mix-blend-mode:screen;}.cls-6{fill:url(#Degradado_sin_nombre_362);}.cls-7{fill:url(#未命名的渐变_283-3);}.cls-8{fill:url(#Degradado_sin_nombre_182);}.cls-9{fill:url(#未命名的渐变_283-4);}.cls-10{fill:url(#未命名的渐变_163);}.cls-11{fill:url(#未命名的渐变_283-5);}.cls-12{fill:url(#未命名的渐变_154);}.cls-13{fill:url(#未命名的渐变_59);}</style><radialGradient id="Degradado_sin_nombre_5" cx="251.05461" cy="344.77752" r="94.29996" gradientTransform="translate(-114.99999 235.78906) scale(1 0.11293)" gradientUnits="userSpaceOnUse"><stop offset="0" stop-color="#515151"/><stop offset="0.9997" stop-color="#fff" stop-opacity="0"/></radialGradient><linearGradient id="未命名的渐变_283" x1="380.43903" y1="155.65733" x2="197.05133" y2="333.31405" gradientTransform="translate(168.15627 444.21074) rotate(-135)" gradientUnits="userSpaceOnUse"><stop offset="0" stop-color="#b7ffbe"/><stop offset="0.40983" stop-color="#00d4b9"/><stop offset="0.9903" stop-color="#008bd4"/></linearGradient><linearGradient id="未命名的渐变_283-2" x1="137.53906" y1="207.39008" x2="190.14861" y2="284.99861" xlink:href="#未命名的渐变_283"/><linearGradient id="Degradado_sin_nombre_362" x1="165.98833" y1="214.24394" x2="269.20906" y2="535.53078" gradientTransform="translate(168.15627 444.21074) rotate(-135)" gradientUnits="userSpaceOnUse"><stop offset="0.00134" stop-color="#2b2a2a"/><stop offset="1" stop-color="#fff"/></linearGradient><linearGradient id="未命名的渐变_283-3" x1="177.17318" y1="222.85494" x2="161.55314" y2="104.00699" xlink:href="#未命名的渐变_283"/><linearGradient id="Degradado_sin_nombre_182" x1="177.17367" y1="222.85543" x2="161.55362" y2="104.00748" gradientTransform="translate(168.15627 444.21074) rotate(-135)" gradientUnits="userSpaceOnUse"><stop offset="0" stop-opacity="0"/><stop offset="0.11955" stop-color="#171717" stop-opacity="0.09185"/><stop offset="0.37144" stop-color="#545454" stop-opacity="0.32848"/><stop offset="0.73144" stop-color="#b3b3b3" stop-opacity="0.7036"/><stop offset="1" stop-color="#fff"/></linearGradient><linearGradient id="未命名的渐变_283-4" x1="145.78406" y1="111.23433" x2="255.12817" y2="129.57154" xlink:href="#未命名的渐变_283"/><linearGradient id="未命名的渐变_163" x1="67.45821" y1="217.43801" x2="134.99943" y2="217.43801" gradientUnits="userSpaceOnUse"><stop offset="0.00134" stop-color="#2b2a2a"/><stop offset="0.22155" stop-color="#2e2d2d"/><stop offset="0.37296" stop-color="#373636"/><stop offset="0.50371" stop-color="#464545"/><stop offset="0.62275" stop-color="#5c5b5b"/><stop offset="0.73386" stop-color="#787777"/><stop offset="0.8391" stop-color="#9a9999"/><stop offset="0.9378" stop-color="#c2c2c2"/><stop offset="1" stop-color="#dfdfdf"/></linearGradient><linearGradient id="未命名的渐变_283-5" x1="277.39166" y1="92.57649" x2="334.70027" y2="147.01968" xlink:href="#未命名的渐变_283"/><linearGradient id="未命名的渐变_154" x1="246.15432" y1="140.54361" x2="337.55309" y2="140.54361" gradientTransform="translate(168.15627 444.21074) rotate(-135)" gradientUnits="userSpaceOnUse"><stop offset="0" stop-color="#f6f6f6"/><stop offset="0.14402" stop-color="#d1d1d1"/><stop offset="0.32931" stop-color="#a9a9a9"/><stop offset="0.51133" stop-color="#8a8989"/><stop offset="0.68668" stop-color="#737272"/><stop offset="0.85244" stop-color="#666565"/><stop offset="0.99866" stop-color="#616060"/></linearGradient><linearGradient id="未命名的渐变_59" x1="318.6047" y1="183.49823" x2="324.39121" y2="279.2394" gradientTransform="translate(168.15627 444.21074) rotate(-135)" gradientUnits="userSpaceOnUse"><stop offset="0" stop-opacity="0"/><stop offset="0.08549" stop-color="#080808" stop-opacity="0.03189"/><stop offset="0.21926" stop-color="#1e1e1e" stop-opacity="0.11933"/><stop offset="0.38459" stop-color="#434343" stop-opacity="0.26219"/><stop offset="0.57514" stop-color="#757575" stop-opacity="0.46074"/><stop offset="0.78713" stop-color="#b6b6b6" stop-opacity="0.71511"/><stop offset="1" stop-color="#fff"/></linearGradient></defs><g class="cls-1"><g id="OBJECTS"><path class="cls-2" d="M192.4557,213.369a19.28718,19.28718,0,0,1-3.21924,5.76954,24.17773,24.17773,0,0,0-2.45459-1.78516,12.68773,12.68773,0,0,0,2.74122-4.71777Zm4.17578-1.59375v6.82129c0,1.5293-.25488,2.32618-1.21142,2.86817a8.59449,8.59449,0,0,1-3.92041.542,11.71927,11.71927,0,0,0-1.02-3.0918c.95605.03223,1.94433.03223,2.29492.03223s.44629-.0957.44629-.44629v-6.72559h-5.86523v-3.1875h5.86523v-2.45507h-6.05615v-3.124h3.12353a14.44011,14.44011,0,0,0-.95605-3.31445l2.61377-.6377h-4.30323v-3.09179h5.45069c-.28711-.86035-.6377-1.75293-.95654-2.51856l3.3789-.79687a33.09874,33.09874,0,0,1,1.37061,3.31543H201.923v3.09179h-4.0166l2.61377.50977c-.50977,1.21191-.95606,2.45508-1.43409,3.44238H202.401v3.124h-5.76954v2.45507h5.25928v3.1875Zm-4.23925-12.71875a12.76916,12.76916,0,0,1,1.08349,3.53809l-1.52978.41406h3.76123a36.26586,36.26586,0,0,0,1.3706-3.95215Zm24.22509,7.7461H213.653V222.453H209.9557V206.80256h-3.124v.22265c0,4.68555-.41455,11.18848-3.15576,15.17286a14.21324,14.21324,0,0,0-2.90039-2.2627,10.75506,10.75506,0,0,0,1.40234-3.06055l-2.51807,1.59375a36.40552,36.40552,0,0,0-2.48632-4.78125l2.48632-1.37109a37.87824,37.87824,0,0,1,2.54981,4.49512,33.3107,33.3107,0,0,0,1.084-9.78614V195.83674a44.18675,44.18675,0,0,0,9.65821-2.709l2.93261,2.77344a52.93173,52.93173,0,0,1-9.05273,2.39063v5.0039h9.78564Z" transform="translate(-114.99999 -79.6382)"/><path class="cls-2" d="M236.21986,203.10432c-.15918.28711-.31884.542-.478.79687,3.82519,3.79395,8.31933,5.16406,13.22851,6.18457a7.68217,7.68217,0,0,0-1.97656,3.02735c-1.30664-.35059-2.51807-.70118-3.76123-1.14747V222.453h-3.793v-.86035H228.12367v.98828h-3.602V212.50764a38.60581,38.60581,0,0,1-3.69775,1.21191,10.72745,10.72745,0,0,0-1.9126-2.86914c5.8335-1.33887,10.80615-3.85742,13.61084-7.87305h-5.291l2.35889.95606a26.515,26.515,0,0,1-6.50293,4.208,31.78,31.78,0,0,0-2.19922-2.61426,19.8695,19.8695,0,0,0,5.355-2.54981h-1.11572v-2.32715h17.02148v2.32715H241.32a31.50406,31.50406,0,0,1,4.87695,2.4541l-2.10351,2.23145a32.83,32.83,0,0,0-5.35547-2.96484l1.72168-1.72071H235.901Zm-12.68652-.31836h-3.60205V197.367h11.47558v-4.58984h3.793v1.43457h9.53077v1.97558h-9.53077V197.367h12.2085V202.786h-3.8252v-3.0918h-20.0498Zm15.90625,8.79785H228.12367v1.14746h11.31592ZM228.12367,215.95h11.31592v-1.17871H228.12367Zm11.31592,3.21973v-1.17969H228.12367v1.17969Zm-1.9126-9.94532a20.00889,20.00889,0,0,1-3.57031-2.93261,18.82185,18.82185,0,0,1-3.21924,2.93261Z" transform="translate(-114.99999 -79.6382)"/><path class="cls-2" d="M265.25746,207.72639a63.2071,63.2071,0,0,1-6.248,8.86132l12.71875-.76464c-1.0205-1.53028-2.07226-3.0918-3.02832-4.46289l3.47461-1.81641a97.0794,97.0794,0,0,1,7.26758,11.02832l-3.69824,2.23145c-.47754-.95606-1.05176-2.10352-1.78516-3.34668-16.0332,1.24316-18.2959,1.37109-20.01758,2.00781a42.58894,42.58894,0,0,0-1.46582-4.23926c.89258-.25488,1.56153-.95605,2.61329-2.13574a42.72075,42.72075,0,0,0,4.75-7.36328h-8.63868v-3.95215h28.68848v3.95215Zm11.34766-8.92481H254.80141v-3.88867h21.80371Z" transform="translate(-114.99999 -79.6382)"/><path class="cls-2" d="M311.76234,216.81135H299.39418V219.074c0,1.88086-.57422,2.64551-2.07227,3.124a27.25906,27.25906,0,0,1-6.375.38281,13.85581,13.85581,0,0,0-1.30664-3.0918c1.84864.06348,4.335.06348,4.877.06348.63769-.03223.8291-.15918.8291-.6377v-2.10351H283.07387v-3.21973h12.27246v-1.33887h.03125l-.03125-.03125a30.47941,30.47941,0,0,0,4.01562-1.17968H286.19789V208.077h19.25293l.79688-.15918,2.42187,2.10352a49.20953,49.20953,0,0,1-8.89258,3.57031h11.98535Zm-.51074-18.45606H283.55238v-3.1875h11.72949a13.28434,13.28434,0,0,0-.66894-1.91308l3.9209-.66895a15.58747,15.58747,0,0,1,1.01953,2.582H311.2516Zm-24.03418,8.44727v-6.98145h20.624v6.98145Zm3.79395-2.61426h12.81347v-1.78516H291.01137Z" transform="translate(-114.99999 -79.6382)"/><ellipse class="cls-3" cx="135" cy="274.48935" rx="135" ry="12.11064"/><polygon class="cls-4" points="2.83 132.169 134.999 55.436 267.169 132.169 134.999 0 2.83 132.169"/><polygon class="cls-5" points="201.454 93.806 218.904 103.993 267.17 132.169 201.082 198.257 201.448 170.537 201.454 93.806"/><polygon class="cls-6" points="201.454 93.806 218.904 103.993 267.17 132.169 201.082 198.257 201.448 170.537 201.454 93.806"/><polygon class="cls-7" points="135 208.9 201.448 170.537 201.21 188.578 201.082 198.257 135 264.339 135 226.805 135 208.9"/><polygon class="cls-8" points="135 208.899 201.448 170.537 201.21 188.577 201.082 198.256 135 264.338 135 226.805 135 208.899"/><polygon class="cls-9" points="134.999 264.339 134.999 208.902 68.547 170.536 67.458 196.797 134.999 264.339"/><polygon class="cls-10" points="134.999 264.339 134.999 208.903 68.547 170.537 67.458 196.798 134.999 264.339"/><polygon class="cls-11" points="67.458 196.797 2.83 132.169 68.547 93.803 68.547 170.536 67.458 196.797"/><polygon class="cls-12" points="67.458 196.797 2.83 132.169 68.547 93.803 68.547 170.536 67.458 196.797"/><polygon class="cls-13" points="134.606 55.436 134.606 0 2.436 132.169 134.606 55.436"/><path d="M190.55385,239.804c.88525-.05957,1.30517-.36035,1.42529-.78027a13.18586,13.18586,0,0,0,.16455-2.79v-3.25488c0-1.335-.07471-1.25977-.34473-1.58985a1.81613,1.81613,0,0,0-1.36474-.55468v-.21H192.279l6.92968,7.91992h.04492v-4.27539c0-2.92481-.01513-3.31446-1.77-3.43457v-.21h3.72021v.21c-.87012.07519-1.24512.36035-1.38037.79492a11.55661,11.55661,0,0,0-.1499,2.63965v5.85058h-.165l-6.91455-7.875h-.02979v3.98926a16.21762,16.21762,0,0,0,.13477,2.76074c.13525.46485.585.73438,1.58984.80957v.21h-3.73486Z" transform="translate(-114.99999 -79.6382)"/><path d="M207.15883,238.87434a3.52882,3.52882,0,0,1-2.25,1.30468,2.85775,2.85775,0,0,1-2.86475-3,3.48745,3.48745,0,0,1,3.01514-3.56933A2.19487,2.19487,0,0,1,207.279,235.724c0,.2998-.01514.34472-.25489.39062-.24023.04492-2.16015.21-4.23.26953-.01513,2.28028,1.3501,3.08985,2.38477,3.08985a2.42153,2.42153,0,0,0,1.81494-.8252Zm-4.2749-2.96973c.34521,0,2.46-.03027,3.105-.0459.375,0,.375-.14941.375-.23926a1.59423,1.59423,0,0,0-1.71-1.58984C203.904,234.02961,203.109,234.68879,202.88393,235.90461Z" transform="translate(-114.99999 -79.6382)"/><path d="M214.53871,240.179c-.59961-1.76953-1.25976-3.33007-1.87451-5.00976-.63037,1.64941-1.2749,3.26953-1.90527,5.00976h-.28467c-.5249-1.71-1.08008-3.45019-1.68018-5.00976-.33008-.88477-.39013-1.08008-1.16992-1.18457v-.21h2.68506v.21c-.62988.13476-.855.21-.855.52441a31.03974,31.03974,0,0,0,1.40967,4.34961h.03027c.54-1.46973,1.19971-3.17969,1.90478-5.00976h.21c.56982,1.56054,1.16992,3.25488,1.89013,5.00976h.02979c.43506-1.31933.87011-2.48926,1.23-3.88476a1.9261,1.9261,0,0,0,.08984-.49512c0-.34473-.28467-.35938-1.00488-.49414v-.21h2.625v.21c-.73486.11914-.83984.34472-1.16992,1.09472-.375.87012-1.16992,3.21-1.89014,5.09961Z" transform="translate(-114.99999 -79.6382)"/><path d="M221.109,239.804c1.335-.05957,1.45508-.31543,1.45508-1.5v-6.01464c0-1.18458-.12012-1.34961-1.37988-1.44043v-.22461h3.54c1.48437,0,3.10449.45019,3.10449,2.37011a2.64492,2.64492,0,0,1-1.83008,2.54981,20.224,20.224,0,0,0,1.335,2.05469c.71973.88476,1.76953,2.1748,2.53516,2.35546l-.04492.19434c-1.36524,0-2.085-.0752-4.34961-3.7793-.375-.54-.8252-.55566-2.10059-.55566V238.304c0,1.18457.12012,1.44043,1.41016,1.5v.21H221.109Zm3.17969-4.29a2.76755,2.76755,0,0,0,1.83008-.45019,2.2027,2.2027,0,0,0,.78027-1.84473c0-1.60449-1.03515-2.29492-2.5957-2.29492a7.953,7.953,0,0,0-.79492.03027c-.07422,0-.13477.04493-.13477.33008V235.514Z" transform="translate(-114.99999 -79.6382)"/><path d="M232.16371,237.599c0,1.5.71973,1.88964,1.55957,1.88964a2.875,2.875,0,0,0,1.9502-.92968V235.2591c0-.88476-.21-.94531-.75-1.0498l-.56934-.08985v-.165a11.252,11.252,0,0,0,2.03906-.2705v4.88964c0,.75.165.8252.75.87012l.4502.03028v.21a8.87549,8.87549,0,0,0-1.84473.50976l-.07519-.07422v-1.15527a9.09244,9.09244,0,0,1-1.29.88477,2.05333,2.05333,0,0,1-1.13965.33007c-.90039,0-1.79981-.46484-1.79981-2.12988v-2.77539c0-.88477-.22558-.96-.54-1.0498l-.48047-.1045v-.15039c.3457-.03027,1.45507-.21,1.78515-.28515a17.8808,17.8808,0,0,0-.04492,1.95019Z" transform="translate(-114.99999 -79.6382)"/><path d="M238.17836,239.804c.96-.07519,1.11035-.26953,1.11035-1.13964v-3.12012c0-.96-.10547-1.03516-.96-1.18457v-.19531a6.03587,6.03587,0,0,0,1.67969-.60059v5.10059c0,.87011.15039,1.06445,1.125,1.13964v.21h-2.95508Zm2.05566-8.91015a.59631.59631,0,0,1-.57031.60058.617.617,0,1,1,.57031-.60058Z" transform="translate(-114.99999 -79.6382)"/><path d="M247.05824,239.804c1.46973-.05957,1.58985-.31543,1.58985-1.45507v-2.16016c0-.165-.0293-.33008-.4043-.96-.51074-.76465-1.08008-1.79981-1.91992-3.16406-.60059-.915-.78028-1.18555-1.62012-1.23047v-.21H247.943v.21c-.79492.10547-1.06446.25488-1.06446.50976a.876.876,0,0,0,.165.43555c.64453,1.08008,1.5,2.53418,2.20508,3.59961a25.82861,25.82861,0,0,0,2.15918-4.01953c0-.31543-.34473-.41992-1.21484-.52539v-.21h3.33008v.21c-1.03516.12011-1.21485.54-1.88965,1.48535a29.59724,29.59724,0,0,0-1.88965,3,1.50949,1.50949,0,0,0-.31543.76465V238.349c0,1.13964.12012,1.3955,1.67969,1.45507v.21h-4.04981Z" transform="translate(-114.99999 -79.6382)"/><path d="M255.93812,237.599c0,1.5.71973,1.88964,1.55958,1.88964a2.875,2.875,0,0,0,1.95019-.92968V235.2591c0-.88476-.21-.94531-.75-1.0498l-.56934-.08985v-.165a11.252,11.252,0,0,0,2.03907-.2705v4.88964c0,.75.165.8252.75.87012l.45019.03028v.21a8.87557,8.87557,0,0,0-1.84472.50976l-.0752-.07422v-1.15527a9.09244,9.09244,0,0,1-1.29.88477,2.05333,2.05333,0,0,1-1.13965.33007c-.90039,0-1.7998-.46484-1.7998-2.12988v-2.77539c0-.88477-.22559-.96-.54-1.0498l-.48047-.1045v-.15039c.3457-.03027,1.45508-.21,1.78516-.28515a17.87684,17.87684,0,0,0-.04493,1.95019Z" transform="translate(-114.99999 -79.6382)"/><path d="M261.95277,239.804c.87012-.05957,1.11035-.28515,1.11035-1.18457v-3.01562c0-1.00488-.10449-1.06445-.94531-1.22949V234.179a4.61923,4.61923,0,0,0,1.665-.62988v1.24512c.29981-.17969.67481-.4502,1.14063-.76465a2.32614,2.32614,0,0,1,1.21484-.41992,1.79634,1.79634,0,0,1,1.94922,1.94922v2.98535c0,1.0498.13574,1.20019.97558,1.25976v.21h-2.8955v-.21c1.0205-.05957,1.20019-.26953,1.20019-1.25976v-2.46c0-.85547-.24023-1.81543-1.62011-1.81543a3.02566,3.02566,0,0,0-1.96485.915v3.375c0,.96.15039,1.18554,1.18555,1.24511v.21h-3.01563Z" transform="translate(-114.99999 -79.6382)"/><path d="M273.00746,239.804c1.41016-.07519,1.51563-.33007,1.51563-1.48535v-5.8789c0-1.29-.12012-1.5459-1.36524-1.60547v-.21h6.52442c0,.52539.07519,1.41015.13574,2.29492l-.25489.04492c-.31542-1.53027-.60058-1.97949-2.415-1.97949h-1.41016c-.40527,0-.41992.02929-.41992.41992v3.50977h1.75488c1.18457,0,1.46973-.1504,1.69434-1.15528h.25586v2.79h-.25586c-.23926-1.15527-.55469-1.21484-1.69434-1.21484H275.318v2.9248c0,1.41016.61523,1.41016,1.85937,1.41016a2.99555,2.99555,0,0,0,2.29492-.57031,4.67615,4.67615,0,0,0,.84082-1.48438h.25489c-.13574.55469-.41992,1.88965-.54,2.39941h-7.02051Z" transform="translate(-114.99999 -79.6382)"/><path d="M281.40687,239.804c.87012-.05957,1.11036-.28515,1.11036-1.18457v-3.01562c0-1.00488-.10547-1.06445-.94532-1.22949V234.179a4.6193,4.6193,0,0,0,1.665-.62988v1.24512c.29981-.17969.67481-.4502,1.14063-.76465a2.32608,2.32608,0,0,1,1.21484-.41992,1.79634,1.79634,0,0,1,1.94922,1.94922v2.98535c0,1.0498.13574,1.20019.97559,1.25976v.21h-2.89551v-.21c1.02051-.05957,1.20019-.26953,1.20019-1.25976v-2.46c0-.85547-.24023-1.81543-1.62011-1.81543a3.02566,3.02566,0,0,0-1.96485.915v3.375c0,.96.15039,1.18554,1.18554,1.24511v.21h-3.01562Z" transform="translate(-114.99999 -79.6382)"/><path d="M291.18715,238.60383a5.36865,5.36865,0,0,1-.35938,2.40039c-.46484,1.06445-1.35058,2.81933-1.7998,2.81933a.57211.57211,0,0,1-.52539-.56933c0-.25488.10547-.33008.2998-.36035a1.57089,1.57089,0,0,0,1.5-1.53028,24.29927,24.29927,0,0,0,.165-2.90918v-2.8955c0-1.00489-.12012-1.06446-1.15527-1.19922v-.19531a5.38443,5.38443,0,0,0,1.875-.60059Zm-.35938-8.32422a.57943.57943,0,0,1,.56934.61426.59617.59617,0,0,1-.56934.60058.617.617,0,0,1,0-1.23047Z" transform="translate(-114.99999 -79.6382)"/><path d="M299.55727,236.77375a3.34019,3.34019,0,0,1-3.29981,3.40527,3.20948,3.20948,0,0,1-3.33008-3.13476,3.3638,3.3638,0,0,1,3.29981-3.43457A3.22318,3.22318,0,0,1,299.55727,236.77375Zm-5.68457-.22461c0,1.91992,1.00488,3.28516,2.59472,3.28516,1.25977,0,2.17481-.81055,2.17481-2.835a2.77914,2.77914,0,0,0-2.54981-3.03028A2.28356,2.28356,0,0,0,293.8727,236.54914Z" transform="translate(-114.99999 -79.6382)"/><path d="M300.15687,233.77473H302.902v.21c-.52539.10449-.78027.19433-.78027.49414a.88639.88639,0,0,0,.10547.375l1.62011,3.99023a22.635,22.635,0,0,0,1.67969-4.29c0-.38964-.25488-.47949-.87012-.56933v-.21h2.80469v.21c-.83984.10449-.89941.28418-1.36426,1.0791-.45019.76562-.99023,1.99512-2.23535,4.56055a24.43554,24.43554,0,0,0-1.71,3.89941.41475.41475,0,0,1-.43457.2998.67336.67336,0,0,1-.67578-.61425c0-.21.165-.31543.375-.46582a6.21375,6.21375,0,0,0,1.8457-2.89453c0-.17969-.88574-2.65528-1.74023-4.72461-.33008-.76465-.43457-.99024-1.36524-1.13965Z" transform="translate(-114.99999 -79.6382)"/></g></g></svg>