<svg xmlns="http://www.w3.org/2000/svg" xmlns:xlink="http://www.w3.org/1999/xlink" viewBox="0 0 270 286.6"><defs><style>.cls-1{isolation:isolate;}.cls-2{font-size:40px;fill:#515151;font-family:NotoSansHans-Bold-GBpc-EUC-H, Noto Sans S Chinese;}.cls-3{fill:url(#Degradado_sin_nombre_5);}.cls-4{fill:url(#未命名的渐变_283);}.cls-5{fill:url(#未命名的渐变_283-2);}.cls-10,.cls-12,.cls-6{opacity:0.9;}.cls-10,.cls-12,.cls-13,.cls-6,.cls-8{mix-blend-mode:screen;}.cls-6{fill:url(#Degradado_sin_nombre_362);}.cls-7{fill:url(#未命名的渐变_283-3);}.cls-8{fill:url(#Degradado_sin_nombre_182);}.cls-9{fill:url(#未命名的渐变_283-4);}.cls-10{fill:url(#未命名的渐变_163);}.cls-11{fill:url(#未命名的渐变_283-5);}.cls-12{fill:url(#未命名的渐变_154);}.cls-13{fill:url(#未命名的渐变_59);}</style><radialGradient id="Degradado_sin_nombre_5" cx="251.05461" cy="344.77752" r="94.29996" gradientTransform="translate(-114.99999 235.78906) scale(1 0.11293)" gradientUnits="userSpaceOnUse"><stop offset="0" stop-color="#515151"/><stop offset="0.9997" stop-color="#fff" stop-opacity="0"/></radialGradient><linearGradient id="未命名的渐变_283" x1="380.43903" y1="155.65733" x2="197.05133" y2="333.31405" gradientTransform="translate(168.15627 444.21074) rotate(-135)" gradientUnits="userSpaceOnUse"><stop offset="0" stop-color="#b7ffbe"/><stop offset="0.40983" stop-color="#00d4b9"/><stop offset="0.9903" stop-color="#008bd4"/></linearGradient><linearGradient id="未命名的渐变_283-2" x1="137.53906" y1="207.39008" x2="190.14861" y2="284.99861" xlink:href="#未命名的渐变_283"/><linearGradient id="Degradado_sin_nombre_362" x1="165.98833" y1="214.24394" x2="269.20906" y2="535.53078" gradientTransform="translate(168.15627 444.21074) rotate(-135)" gradientUnits="userSpaceOnUse"><stop offset="0.00134" stop-color="#2b2a2a"/><stop offset="1" stop-color="#fff"/></linearGradient><linearGradient id="未命名的渐变_283-3" x1="177.17318" y1="222.85494" x2="161.55314" y2="104.00699" xlink:href="#未命名的渐变_283"/><linearGradient id="Degradado_sin_nombre_182" x1="177.17367" y1="222.85543" x2="161.55362" y2="104.00748" gradientTransform="translate(168.15627 444.21074) rotate(-135)" gradientUnits="userSpaceOnUse"><stop offset="0" stop-opacity="0"/><stop offset="0.11955" stop-color="#171717" stop-opacity="0.09185"/><stop offset="0.37144" stop-color="#545454" stop-opacity="0.32848"/><stop offset="0.73144" stop-color="#b3b3b3" stop-opacity="0.7036"/><stop offset="1" stop-color="#fff"/></linearGradient><linearGradient id="未命名的渐变_283-4" x1="145.78406" y1="111.23433" x2="255.12817" y2="129.57154" xlink:href="#未命名的渐变_283"/><linearGradient id="未命名的渐变_163" x1="67.45821" y1="217.43801" x2="134.99943" y2="217.43801" gradientUnits="userSpaceOnUse"><stop offset="0.00134" stop-color="#2b2a2a"/><stop offset="0.22155" stop-color="#2e2d2d"/><stop offset="0.37296" stop-color="#373636"/><stop offset="0.50371" stop-color="#464545"/><stop offset="0.62275" stop-color="#5c5b5b"/><stop offset="0.73386" stop-color="#787777"/><stop offset="0.8391" stop-color="#9a9999"/><stop offset="0.9378" stop-color="#c2c2c2"/><stop offset="1" stop-color="#dfdfdf"/></linearGradient><linearGradient id="未命名的渐变_283-5" x1="277.39166" y1="92.57649" x2="334.70027" y2="147.01968" xlink:href="#未命名的渐变_283"/><linearGradient id="未命名的渐变_154" x1="246.15432" y1="140.54361" x2="337.55309" y2="140.54361" gradientTransform="translate(168.15627 444.21074) rotate(-135)" gradientUnits="userSpaceOnUse"><stop offset="0" stop-color="#f6f6f6"/><stop offset="0.14402" stop-color="#d1d1d1"/><stop offset="0.32931" stop-color="#a9a9a9"/><stop offset="0.51133" stop-color="#8a8989"/><stop offset="0.68668" stop-color="#737272"/><stop offset="0.85244" stop-color="#666565"/><stop offset="0.99866" stop-color="#616060"/></linearGradient><linearGradient id="未命名的渐变_59" x1="318.6047" y1="183.49823" x2="324.39121" y2="279.2394" gradientTransform="translate(168.15627 444.21074) rotate(-135)" gradientUnits="userSpaceOnUse"><stop offset="0" stop-opacity="0"/><stop offset="0.08549" stop-color="#080808" stop-opacity="0.03189"/><stop offset="0.21926" stop-color="#1e1e1e" stop-opacity="0.11933"/><stop offset="0.38459" stop-color="#434343" stop-opacity="0.26219"/><stop offset="0.57514" stop-color="#757575" stop-opacity="0.46074"/><stop offset="0.78713" stop-color="#b6b6b6" stop-opacity="0.71511"/><stop offset="1" stop-color="#fff"/></linearGradient></defs><g class="cls-1"><g id="OBJECTS"><text class="cls-2" transform="translate(85.52641 140.16945)"><tspan xml:space="preserve">新  睿</tspan></text><ellipse class="cls-3" cx="135" cy="274.48935" rx="135" ry="12.11064"/><polygon class="cls-4" points="2.83 132.169 134.999 55.436 267.169 132.169 134.999 0 2.83 132.169"/><polygon class="cls-5" points="201.454 93.806 218.904 103.993 267.17 132.169 201.082 198.257 201.448 170.537 201.454 93.806"/><polygon class="cls-6" points="201.454 93.806 218.904 103.993 267.17 132.169 201.082 198.257 201.448 170.537 201.454 93.806"/><polygon class="cls-7" points="135 208.9 201.448 170.537 201.21 188.578 201.082 198.257 135 264.339 135 226.805 135 208.9"/><polygon class="cls-8" points="135 208.899 201.448 170.537 201.21 188.577 201.082 198.256 135 264.338 135 226.805 135 208.899"/><polygon class="cls-9" points="134.999 264.339 134.999 208.902 68.547 170.536 67.458 196.797 134.999 264.339"/><polygon class="cls-10" points="134.999 264.339 134.999 208.903 68.547 170.537 67.458 196.798 134.999 264.339"/><polygon class="cls-11" points="67.458 196.797 2.83 132.169 68.547 93.803 68.547 170.536 67.458 196.797"/><polygon class="cls-12" points="67.458 196.797 2.83 132.169 68.547 93.803 68.547 170.536 67.458 196.797"/><polygon class="cls-13" points="134.606 55.436 134.606 0 2.436 132.169 134.606 55.436"/><path d="M222.2184,241.36359c.88525-.05957,1.30517-.36035,1.42529-.78027a13.18579,13.18579,0,0,0,.16455-2.79V234.5384c0-1.335-.0747-1.25977-.34472-1.58985a1.81617,1.81617,0,0,0-1.36475-.55468v-.21h1.84473l6.92968,7.91992h.04493v-4.27539c0-2.92481-.01514-3.31446-1.77-3.43457v-.21h3.72021v.21c-.87012.07519-1.24512.36035-1.38037.79492a11.55661,11.55661,0,0,0-.1499,2.63965V241.679h-.165l-6.91455-7.875h-.02979v3.98926a16.21754,16.21754,0,0,0,.13477,2.76074c.13525.46485.585.73438,1.58984.80957v.21H222.2184Z" transform="translate(-114.99999 -79.6382)"/><path d="M238.82338,240.43391a3.52882,3.52882,0,0,1-2.25,1.30468,2.85775,2.85775,0,0,1-2.86475-3,3.48745,3.48745,0,0,1,3.01514-3.56933,2.19487,2.19487,0,0,1,2.21973,2.11426c0,.2998-.01514.34472-.25489.39062-.24023.04492-2.16015.21-4.23.26953-.01513,2.28028,1.3501,3.08985,2.38477,3.08985a2.42153,2.42153,0,0,0,1.81494-.8252Zm-4.2749-2.96973c.34521,0,2.46-.03027,3.105-.0459.375,0,.375-.14941.375-.23926a1.59423,1.59423,0,0,0-1.71-1.58984C235.5685,235.58918,234.77357,236.24836,234.54848,237.46418Z" transform="translate(-114.99999 -79.6382)"/><path d="M246.20326,241.73859c-.59961-1.76953-1.25976-3.33007-1.87451-5.00976-.63037,1.64941-1.2749,3.26953-1.90527,5.00976h-.28467c-.5249-1.71-1.08008-3.45019-1.68018-5.00976-.33008-.88477-.39013-1.08008-1.16992-1.18457v-.21h2.68506v.21c-.62988.13476-.855.21-.855.52441a31.03974,31.03974,0,0,0,1.40967,4.34961h.03027c.54-1.46973,1.19971-3.17969,1.90479-5.00976h.21c.56982,1.56054,1.16992,3.25488,1.89013,5.00976h.02979c.43506-1.31933.87012-2.48926,1.23-3.88476a1.9261,1.9261,0,0,0,.08984-.49512c0-.34473-.28467-.35938-1.00488-.49414v-.21h2.625v.21c-.73486.11914-.83984.34472-1.16992,1.09472-.375.87012-1.16992,3.21-1.89014,5.09961Z" transform="translate(-114.99999 -79.6382)"/><path d="M252.77357,241.36359c1.335-.05957,1.45508-.31543,1.45508-1.5V233.849c0-1.18457-.12011-1.34961-1.37988-1.44043v-.22461h3.54c1.48437,0,3.10449.45019,3.10449,2.37011a2.64492,2.64492,0,0,1-1.83008,2.54981,20.224,20.224,0,0,0,1.335,2.05469c.71973.88476,1.76953,2.1748,2.53516,2.35546l-.04492.19434c-1.36524,0-2.085-.07519-4.34961-3.7793-.375-.54-.8252-.55566-2.10059-.55566v2.49023c0,1.18457.12012,1.44043,1.41016,1.5v.21h-3.67481Zm3.17969-4.29a2.76755,2.76755,0,0,0,1.83008-.45019,2.2027,2.2027,0,0,0,.78027-1.84473c0-1.60449-1.03515-2.29492-2.5957-2.29492a7.953,7.953,0,0,0-.79492.03027c-.07422,0-.13477.04493-.13477.33008v4.22949Z" transform="translate(-114.99999 -79.6382)"/><path d="M263.82826,239.15852c0,1.5.71973,1.88964,1.55957,1.88964a2.875,2.875,0,0,0,1.9502-.92968v-3.29981c0-.88476-.21-.94531-.75-1.0498l-.56934-.08985v-.165a11.252,11.252,0,0,0,2.03906-.2705v4.88965c0,.75.165.82519.75.87011l.4502.03028v.21a8.87549,8.87549,0,0,0-1.84473.50976l-.07519-.07422v-1.15527a9.09244,9.09244,0,0,1-1.29.88477,2.05333,2.05333,0,0,1-1.13965.33007c-.90039,0-1.7998-.46484-1.7998-2.12988v-2.77539c0-.88477-.22559-.96-.54-1.0498l-.48047-.1045v-.15039c.3457-.03027,1.45508-.21,1.78515-.28515a17.8808,17.8808,0,0,0-.04492,1.95019Z" transform="translate(-114.99999 -79.6382)"/><path d="M269.84291,241.36359c.96-.07519,1.11035-.26953,1.11035-1.13964v-3.12012c0-.96-.10547-1.03516-.96-1.18457V235.724a6.03587,6.03587,0,0,0,1.67969-.60059V240.224c0,.87011.15039,1.06445,1.125,1.13964v.21h-2.95508Zm2.05566-8.91015a.59631.59631,0,0,1-.57031.60058.617.617,0,1,1,.57031-.60058Z" transform="translate(-114.99999 -79.6382)"/></g></g></svg>